<svg xmlns="http://www.w3.org/2000/svg" xmlns:ev="http://www.w3.org/2001/xml-events" xmlns:xlink="http://www.w3.org/1999/xlink" width="1122.518" height="793.701" class="st20" color-interpolation-filters="sRGB" viewBox="0 0 841.89 595.276" xml:space="preserve"><style type="text/css">.st1{visibility:visible}.st2,.st3{stroke-linecap:butt}.st2{fill:#000;fill-opacity:.6;filter:url(#filter_3.3333334922791);stroke:#000;stroke-opacity:.6}.st3{fill:url(#grad0-8);stroke:#9b7102;stroke-width:1}.st4{fill:#fff;font-family:Franklin Gothic Book;font-size:.666664em}.st5{font-size:1em}.st6,.st7{fill:#1c8172;stroke:#105046;stroke-linecap:butt;stroke-width:1}.st7{fill:#5e972a;stroke:#395d18}.st8{marker-end:url(#mrkr4-97);stroke:red;stroke-linecap:round;stroke-linejoin:round;stroke-width:1.5}.st9{fill:red;fill-opacity:1;stroke:red;stroke-opacity:1;stroke-width:.37313432835821}.st10{fill:#fff;stroke:none;stroke-linecap:butt;stroke-width:7.2}.st11{fill:red;font-family:Franklin Gothic Book;font-size:.666664em}.st12,.st13{stroke:#6bae2f}.st12{marker-end:url(#mrkr4-105);stroke-linecap:round;stroke-linejoin:round;stroke-width:1.5}.st13{fill:#6bae2f;fill-opacity:1;stroke-opacity:1;stroke-width:.37313432835821}.st14{fill:#528722;font-family:Franklin Gothic Book;font-size:.666664em}.st15,.st16{stroke:#0c0c0c}.st15{marker-end:url(#mrkr4-113);stroke-linecap:round;stroke-linejoin:round;stroke-width:1.5}.st16{fill:#0c0c0c;fill-opacity:1;stroke-opacity:1;stroke-width:.37313432835821}.st17,.st18{fill:#fff;stroke:none;stroke-linecap:butt}.st18{fill:none;stroke-width:1}.st19{fill:#353535;font-family:Franklin Gothic Book;font-size:1.33333em;font-weight:700}.st20{fill:none;fill-rule:evenodd;font-size:12px;overflow:visible;stroke-linecap:square;stroke-miterlimit:3}</style><defs id="Patterns_And_Gradients"><linearGradient id="grad0-8" x1="0" x2="1" y1="0" y2="0" gradientTransform="rotate(90 0.5 0.5)"><stop offset="0" stop-color="#fdcc4b" stop-opacity="1"/><stop offset="1" stop-color="#cf9702" stop-opacity="1"/></linearGradient></defs><defs id="Markers"><g id="lend4"><path d="M 2 1 L 0 0 L 2 -1 L 2 1" style="stroke:none"/></g><marker id="mrkr4-97" class="st9" markerUnits="strokeWidth" orient="auto" overflow="visible" refX="-5.36"><use transform="scale(-2.68,-2.68)" xlink:href="#lend4"/></marker><marker id="mrkr4-105" class="st13" markerUnits="strokeWidth" orient="auto" overflow="visible" refX="-5.36"><use transform="scale(-2.68,-2.68)" xlink:href="#lend4"/></marker><marker id="mrkr4-113" class="st16" markerUnits="strokeWidth" orient="auto" overflow="visible" refX="-5.36"><use transform="scale(-2.68,-2.68)" xlink:href="#lend4"/></marker></defs><defs id="Filters"><filter id="filter_3.3333334922791"><feGaussianBlur stdDeviation="3.333"/></filter></defs><g><title>Process</title><g id="group132-1" transform="translate(56.6929,-70.8661)"><title>Sheet.132</title><g id="shape3-2" transform="translate(406.417,-364.961)"><title>Decision</title><desc>Min(array) &lt; Key &lt; Max(Array)</desc><g id="shadow3-3" class="st1"><path d="M0 570.47 L44.29 545.67 L88.58 570.47 L44.29 595.28 L0 570.47 Z" class="st2" transform="matrix(1,0,0,1,0,3.00236)"/></g><path d="M0 570.47 L44.29 545.67 L88.58 570.47 L44.29 595.28 L0 570.47 Z" class="st3"/><text x="13.14" y="568.07" class="st4">Min(array) &lt; Key &lt; <tspan x="26.34" class="st5" dy="1.2em">Max</tspan>(Array)</text></g><g id="shape4-11" transform="translate(56.6929,-375.591)"><title>Start/End.46</title><desc>Start</desc><g id="shadow4-12" class="st1"><path d="M14.17 595.28 L56.69 595.28 A14.1732 14.1732 -180 0 0 56.69 566.93 L14.17 566.93 A14.1732 14.1732 -180 1 0 14.17 595.28 Z" class="st2" transform="matrix(1,0,0,1,0,3.00236)"/></g><path d="M14.17 595.28 L56.69 595.28 A14.1732 14.1732 -180 0 0 56.69 566.93 L14.17 566.93 A14.1732 14.1732 -180 1 0 14.17 595.28 Z" class="st3"/><text x="27.26" y="583.5" class="st4">Start</text></g><g id="shape8-18" transform="translate(644.882,-375.591)"><title>Start/End.18</title><desc>End</desc><g id="shadow8-19" class="st1"><path d="M14.17 595.28 L56.69 595.28 A14.1732 14.1732 -180 0 0 56.69 566.93 L14.17 566.93 A14.1732 14.1732 -180 1 0 14.17 595.28 Z" class="st2" transform="matrix(1,0,0,1,0,3.00236)"/></g><path d="M14.17 595.28 L56.69 595.28 A14.1732 14.1732 -180 0 0 56.69 566.93 L14.17 566.93 A14.1732 14.1732 -180 1 0 14.17 595.28 Z" class="st3"/><text x="28.92" y="583.5" class="st4">End</text></g><g id="shape83-25" transform="translate(182.835,-362.835)"><title>Data.83</title><desc>I = count(array) Atas = i – 1 Bawah = 0 Tengah = (bawah + ata...</desc><g id="shadow83-26" class="st1"><path d="M-13.46 595.28 L135.35 595.28 L162.28 541.42 L13.46 541.42 L-13.46 595.28 Z" class="st2" transform="matrix(1,0,0,1,2.84217E-14,3.00236)"/></g><path d="M-13.46 595.28 L135.35 595.28 L162.28 541.42 L13.46 541.42 L-13.46 595.28 Z" class="st6"/><text x="48.68" y="551.55" class="st4">I = count(array)<tspan x="55.11" class="st5" dy="1.2em">Atas </tspan>= i – 1<tspan x="56.25" class="st5" dy="1.2em">Bawah </tspan>= 0<tspan x="28.26" class="st5" dy="1.2em">Tengah </tspan>= (bawah + atas)/2<tspan x="37.57" class="st5" dy="1.2em">Key </tspan>= nilai yang dicari</text></g><g id="shape87-35" transform="translate(307.559,-259.37)"><title>Decision.87</title><desc>Array[tengah] == key</desc><g id="shadow87-36" class="st1"><path d="M0 570.47 L44.29 545.67 L88.58 570.47 L44.29 595.28 L0 570.47 Z" class="st2" transform="matrix(1,0,0,1,0,3.00236)"/></g><path d="M0 570.47 L44.29 545.67 L88.58 570.47 L44.29 595.28 L0 570.47 Z" class="st3"/><text x="15.98" y="568.07" class="st4">Array[tengah] == <tspan x="38.55" class="st5" dy="1.2em">key</tspan></text></g><g id="shape89-43" transform="translate(199.843,-219.685)"><title>Decision.89</title><desc>Array[tengah] &gt; Key</desc><g id="shadow89-44" class="st1"><path d="M0 574.02 L35.43 552.76 L70.87 574.02 L35.43 595.28 L0 574.02 Z" class="st2" transform="matrix(1,0,0,1,0,3.00236)"/></g><path d="M0 574.02 L35.43 552.76 L70.87 574.02 L35.43 595.28 L0 574.02 Z" class="st3"/><text x="9.46" y="571.62" class="st4">Array[tengah] &gt; <tspan x="29.18" class="st5" dy="1.2em">Key</tspan></text></g><g id="shape130-51" transform="translate(0,-170.079)"><title>Custom 3</title><desc>Hasil = key</desc><g id="shadow130-52" class="st1"><path d="M0 595.28 L70.87 595.28 L70.87 552.76 L17.01 552.76 L0 569.76 L0 595.28 Z" class="st2" transform="matrix(1,0,0,1,0,3.00236)"/></g><path d="M0 595.28 L70.87 595.28 L70.87 552.76 L17.01 552.76 L0 569.76 L0 595.28 Z" class="st7"/><text x="16.96" y="576.42" class="st4">Hasil = key</text></g><g id="shape131-57" transform="translate(504.567,-168.661)"><title>Custom 3.131</title><desc>Hasil = null</desc><g id="shadow131-58" class="st1"><path d="M0 595.28 L70.87 595.28 L70.87 552.76 L17.01 552.76 L0 569.76 L0 595.28 Z" class="st2" transform="matrix(1,0,0,1,0,3.00236)"/></g><path d="M0 595.28 L70.87 595.28 L70.87 552.76 L17.01 552.76 L0 569.76 L0 595.28 Z" class="st7"/><text x="16.53" y="576.42" class="st4">Hasil = null</text></g><g id="shape97-63" transform="translate(307.559,-138.898)"><title>Process.97</title><desc>Atas = Tengah - 1</desc><g id="shadow97-64" class="st1" transform="matrix(1,0,0,1,0,3.00236)"><rect width="46.772" height="53.858" x="0" y="541.417" class="st2"/></g><rect width="46.772" height="53.858" x="0" y="541.417" class="st7"/><text x="12.7" y="565.95" class="st4">Atas = <tspan x="5.61" class="st5" dy="1.2em">Tengah </tspan>- 1</text></g><g id="shape100-70" transform="translate(126.142,-138.898)"><title>Process.100</title><desc>Bawah = Tengah + 1</desc><g id="shadow100-71" class="st1" transform="matrix(1,0,0,1,0,3.00236)"><rect width="46.772" height="53.858" x="0" y="541.417" class="st2"/></g><rect width="46.772" height="53.858" x="0" y="541.417" class="st7"/><text x="8.58" y="565.95" class="st4">Bawah = <tspan x="4.26" class="st5" dy="1.2em">Tengah </tspan>+ 1</text></g><g id="shape101-77" transform="translate(413.858,-41.1024)"><title>Decision.101</title><desc>Atas &gt; bawah</desc><g id="shadow101-78" class="st1"><path d="M0 574.02 L35.43 552.76 L70.87 574.02 L35.43 595.28 L0 574.02 Z" class="st2" transform="matrix(1,0,0,1,0,3.00236)"/></g><path d="M0 574.02 L35.43 552.76 L70.87 574.02 L35.43 595.28 L0 574.02 Z" class="st3"/><text x="12.55" y="576.42" class="st4">Atas &gt; bawah</text></g><g id="shape106-84" transform="translate(216.85,-76.5354)"><title>Process.106</title><desc>Tengah = (bawah + atas)/2</desc><g id="shadow106-85" class="st1" transform="matrix(1,0,0,1,0,3.00236)"><rect width="53.858" height="42.52" x="0" y="552.756" class="st2"/></g><rect width="53.858" height="42.52" x="0" y="552.756" class="st7"/><text x="11.15" y="566.82" class="st4">Tengah = <tspan x="11.21" class="st5" dy="1.2em">(</tspan>bawah + <tspan x="14.28" class="st5" dy="1.2em">atas</tspan>)/2</text></g><g id="shape112-92" transform="translate(199.843,-240.945)"><title>Dynamic connector</title><desc>Tidak</desc><path d="M0 595.28 L-50.31 595.28 L-50.31 635.42" class="st8"/><rect width="18.266" height="9.6" x="-58.385" y="590.476" class="st10"/><text x="-58.38" y="597.68" class="st11">Tidak</text></g><g id="shape113-100" transform="translate(270.709,-240.945)"><title>Dynamic connector.113</title><desc>Ya</desc><path d="M0 595.28 L60.24 595.28 L60.24 635.42" class="st12"/><rect width="8.313" height="9.6" x="50.056" y="590.476" class="st10"/><text x="50.06" y="597.68" class="st14">Ya</text></g><g id="shape114-108" transform="translate(330.945,-138.898)"><title>Dynamic connector.114</title><path d="M0 595.28 L0 636.38 L-52.2 636.38" class="st15"/></g><g id="shape115-114" transform="translate(149.528,-138.898)"><title>Dynamic connector.115</title><path d="M0 595.28 L0 636.38 L59.28 636.38" class="st15"/></g><g id="shape116-119" transform="translate(243.78,-76.5354)"><title>Dynamic connector.116</title><path d="M0 595.28 L0 609.45 L162.04 609.45" class="st12"/></g><g id="shape118-124" transform="translate(307.559,-284.173)"><title>Dynamic connector.118</title><desc>Tidak</desc><path d="M0 595.28 L-72.28 595.28 L-72.28 609.2" class="st8"/><rect width="18.266" height="9.6" x="-56.259" y="590.476" class="st17"/><text x="-56.26" y="597.68" class="st11">Tidak</text></g><g id="shape119-131" transform="translate(351.85,-308.976)"><title>Dynamic connector.119</title><desc>Ya</desc><path d="M0 595.28 L0 576.85 L-316.42 576.85 L-316.42 683.61" class="st12"/><rect width="8.313" height="9.6" x="-210.554" y="572.051" class="st10"/><text x="-210.55" y="579.25" class="st14">Ya</text></g><g id="shape120-138" transform="translate(450.709,-364.961)"><title>Dynamic connector.120</title><desc>Ya</desc><path d="M0 595.28 L0 676.06 L-46.53 676.06" class="st12"/><rect width="8.313" height="9.6" x="-4.156" y="658.153" class="st10"/><text x="-4.16" y="665.35" class="st14">Ya</text></g><g id="shape121-145" transform="translate(495,-389.764)"><title>Dynamic connector.121</title><desc>Tidak</desc><path d="M0 595.28 L45 595.28 L45 765.82" class="st8"/><rect width="18.266" height="9.6" x="35.867" y="657.267" class="st10"/><text x="35.87" y="664.47" class="st11">Tidak</text></g><g id="shape122-152" transform="translate(331.654,-382.677)"><title>Dynamic connector.122</title><path d="M0 588.19 L66.72 588.19" class="st15"/></g><g id="shape123-157" transform="translate(127.559,-382.677)"><title>Dynamic connector.123</title><path d="M0 588.19 L47.24 588.19" class="st15"/></g><g id="shape124-162" transform="translate(35.4331,-170.079)"><title>Dynamic connector.124</title><path d="M0 595.28 L0 744.09 L601.41 744.09" class="st15"/></g><g id="shape125-167" transform="translate(575.433,-189.921)"><title>Dynamic connector.125</title><path d="M0 595.28 L21.26 595.28 L21.26 763.94 L61.41 763.94" class="st15"/></g><g id="shape127-172" transform="translate(673.228,-42.5197)"><title>Dynamic connector.127</title><path d="M7.09 595.28 L7.09 270.24" class="st15"/></g><g id="shape126-177" transform="translate(644.882,0)"><title>Data</title><desc>Return Hasil</desc><g id="shadow126-178" class="st1"><path d="M-10.63 595.28 L60.24 595.28 L81.5 552.76 L10.63 552.76 L-10.63 595.28 Z" class="st2" transform="matrix(1,0,0,1,0,3.00236)"/></g><path d="M-10.63 595.28 L60.24 595.28 L81.5 552.76 L10.63 552.76 L-10.63 595.28 Z" class="st6"/><text x="14.64" y="576.42" class="st4">Return Hasil</text></g><g id="shape128-183" transform="translate(449.291,-83.622)"><title>Dynamic connector.128</title><desc>Ya</desc><path d="M0 595.28 L0 394.72 L-45.11 394.72" class="st12"/><rect width="8.313" height="9.6" x="-4.156" y="463.625" class="st10"/><text x="-4.16" y="470.83" class="st14">Ya</text></g><g id="shape129-190" transform="translate(484.724,-62.3622)"><title>Dynamic connector.129</title><desc>Tidak</desc><path d="M0 595.28 L55.28 595.28 L55.28 497.02" class="st8"/><rect width="18.266" height="9.6" x="46.143" y="564.964" class="st10"/><text x="46.14" y="572.16" class="st11">Tidak</text></g></g><g id="shape133-197" transform="translate(216.339,-530.079)"><title>Sheet.133</title><desc>ALUR KERJA ALGORITMA PENCARIAN BINARY</desc><rect width="396.457" height="12" x="0" y="583.276" class="st18"/><text x="45.73" y="594.08" class="st19">ALUR KERJA ALGORITMA PENCARIAN BINARY</text></g></g></svg>