<svg xmlns="http://www.w3.org/2000/svg" xmlns:ev="http://www.w3.org/2001/xml-events" xmlns:xlink="http://www.w3.org/1999/xlink" width="1122.518" height="793.701" class="st24" color-interpolation-filters="sRGB" viewBox="0 0 841.89 595.276" xml:space="preserve"><style type="text/css">.st1{fill:#fff;stroke:#febf01;stroke-linecap:round;stroke-linejoin:round;stroke-width:2}.st2{fill:#8d6b01;font-family:Calibri;font-size:.666664em}.st3{fill:#ec7d31;stroke:#fff;stroke-linecap:round;stroke-linejoin:round;stroke-width:1}.st4{fill:#fff;font-family:Calibri;font-size:.666664em}.st5{font-size:1em}.st6,.st7{stroke:#4f4640}.st6{marker-end:url(#mrkr4-19);stroke-linecap:round;stroke-linejoin:round;stroke-width:1}.st7{fill:#4f4640;fill-opacity:1;stroke-opacity:1;stroke-width:.28409090909091}.st8,.st9{stroke:#70ac48}.st8{marker-end:url(#mrkr4-29);stroke-linecap:round;stroke-linejoin:round;stroke-width:1}.st9{fill:#70ac48;fill-opacity:1;stroke-opacity:1;stroke-width:.28409090909091}.st10{fill:#fff;stroke:none;stroke-linecap:butt;stroke-width:7.2}.st11{fill:#3e5f28;font-family:Calibri;font-size:.666664em}.st12{fill:#5b9ad4}.st13{stroke:#fff}.st13,.st14,.st15{stroke-linecap:round;stroke-linejoin:round;stroke-width:1}.st14{fill:#70ac47;stroke:#fff}.st15{marker-end:url(#mrkr4-81);stroke:red}.st16{fill:red;fill-opacity:1;stroke:red;stroke-opacity:1;stroke-width:.28409090909091}.st17{fill:#91430e;font-family:Calibri;font-size:.666664em}.st18{fill:#fff;stroke:#a5a5a5;stroke-linecap:round;stroke-linejoin:round;stroke-width:2}.st19{fill:#5c5c5c;font-family:Calibri;font-size:.666664em}.st20{fill:#5b9ad4;stroke:#fff;stroke-linecap:round;stroke-linejoin:round;stroke-width:1}.st21{fill:#69310a;font-family:Calibri;font-size:.666664em}.st22{fill:none;stroke:none;stroke-linecap:round;stroke-linejoin:round;stroke-width:2}.st23{fill:#5c5c5c;font-family:Calibri;font-size:1.33333em;font-weight:700}.st24{fill:none;fill-rule:evenodd;font-size:12px;overflow:visible;stroke-linecap:square;stroke-miterlimit:3}</style><defs id="Markers"><g id="lend4"><path d="M 2 1 L 0 0 L 2 -1 L 2 1" style="stroke:none"/></g><marker id="mrkr4-19" class="st7" markerUnits="strokeWidth" orient="auto" overflow="visible" refX="-7.04"><use transform="scale(-3.52,-3.52)" xlink:href="#lend4"/></marker><marker id="mrkr4-29" class="st9" markerUnits="strokeWidth" orient="auto" overflow="visible" refX="-7.04"><use transform="scale(-3.52,-3.52)" xlink:href="#lend4"/></marker><marker id="mrkr4-81" class="st16" markerUnits="strokeWidth" orient="auto" overflow="visible" refX="-7.04"><use transform="scale(-3.52,-3.52)" xlink:href="#lend4"/></marker></defs><g><title>Page-1</title><g id="group48-1" transform="translate(28.3465,-147.7)"><title>Sheet.48</title><g id="shape1-2" transform="translate(14.8819,-334.19)"><title>Start/End</title><desc>Start</desc><path d="M14.17 595.28 L56.69 595.28 A14.1732 14.1732 -180 0 0 56.69 566.93 L14.17 566.93 A14.1732 14.1732 -180 1 0 14.17 595.28 Z" class="st1"/><text x="27.61" y="583.5" class="st2">Start</text></g><g id="shape2-5" transform="translate(574.016,-334.19)"><title>Start/End.2</title><desc>End</desc><path d="M14.17 595.28 L56.69 595.28 A14.1732 14.1732 -180 0 0 56.69 566.93 L14.17 566.93 A14.1732 14.1732 -180 1 0 14.17 595.28 Z" class="st1"/><text x="29.28" y="583.5" class="st2">End</text></g><g id="shape3-8" transform="translate(0,-262.205)"><title>Data</title><desc>I = count(array)-1 Key = nilai dicari J = √count(array) Index...</desc><path d="M-10.63 595.28 L90 595.28 L111.26 552.76 L10.63 552.76 L-10.63 595.28 Z" class="st3"/><text x="22.05" y="562.02" class="st4">I = count(array)-1<tspan x="24.02" class="st5" dy="1.2em">Key </tspan>= nilai dicari<tspan x="23.05" class="st5" dy="1.2em">J </tspan>= √count(array)<tspan x="35.55" class="st5" dy="1.2em">Index </tspan>= 0</text></g><g id="shape5-14" transform="translate(43.2283,-262.205)"><title>Dynamic connector</title><path d="M7.09 595.28 L7.09 630.76" class="st6"/></g><g id="shape4-20" transform="translate(14.8819,-177.165)"><title>Decision</title><desc>Key on array range</desc><path d="M0 574.02 L35.43 552.76 L70.87 574.02 L35.43 595.28 L0 574.02 Z" class="st1"/><text x="15.1" y="571.62" class="st2">Key on array <tspan x="26.15" class="st5" dy="1.2em">range</tspan></text></g><g id="shape7-24" transform="translate(43.2283,-177.165)"><title>Dynamic connector.7</title><desc>Ya</desc><path d="M7.09 595.28 L7.09 666.19" class="st8"/><rect width="7.731" height="9.6" x="3.221" y="629.452" class="st10"/><text x="3.22" y="636.65" class="st11">Ya</text></g><g id="shape6-32" transform="translate(14.8819,-56.6929)"><title>Data.6</title><desc>Index = index+j</desc><path d="M-10.63 595.28 L60.24 595.28 L81.5 552.76 L10.63 552.76 L-10.63 595.28 Z" class="st3"/><text x="23.6" y="571.62" class="st4">Index = <tspan x="23.64" class="st5" dy="1.2em">index</tspan>+j</text></g><g id="shape11-36" transform="translate(85.748,-70.8661)"><title>Dynamic connector.11</title><path d="M0 588.19 L35.48 588.19" class="st6"/></g><g id="shape10-41" transform="translate(128.268,-56.6929)"><title>Decision.10</title><desc>Index &lt; i</desc><path d="M0 574.02 L35.43 552.76 L70.87 574.02 L35.43 595.28 L0 574.02 Z" class="st1"/><text x="21.78" y="576.42" class="st2">Index &lt; i</text></g><g id="shape12-44" transform="translate(574.016,-177.165)"><title>Subprocess</title><desc>Lakukan Linear search</desc><path d="M0 595.28 L70.87 595.28 L70.87 552.76 L0 552.76 L0 595.28 Z" class="st12"/><path d="M0 595.28 L70.87 595.28 L70.87 552.76 L0 552.76 L0 595.28" class="st13"/><path d="M8.5 595.28 L8.5 552.76" class="st13"/><path d="M62.36 595.28 L62.36 552.76" class="st13"/><text x="11.17" y="571.62" class="st4">Lakukan Linear <tspan x="24.77" class="st5" dy="1.2em">search</tspan></text></g><g id="shape14-51" transform="translate(432.283,-177.165)"><title>Decision.14</title><desc>Array(index) == key</desc><path d="M0 574.02 L35.43 552.76 L70.87 574.02 L35.43 595.28 L0 574.02 Z" class="st1"/><text x="10.44" y="571.62" class="st2">Array(index) == <tspan x="29.81" class="st5" dy="1.2em">key</tspan></text></g><g id="shape19-55" transform="translate(283.465,0)"><title>Process</title><desc>N = index</desc><rect width="70.866" height="42.52" x="0" y="552.756" class="st14"/><text x="20.21" y="576.42" class="st4">N = index</text></g><g id="shape20-58" transform="translate(283.465,-113.386)"><title>Process.20</title><desc>N = i</desc><rect width="70.866" height="42.52" x="0" y="552.756" class="st14"/><text x="28.13" y="576.42" class="st4">N = i</text></g><g id="shape22-61" transform="translate(354.331,-21.2598)"><title>Dynamic connector.22</title><path d="M0 595.28 L106.3 595.28 L106.3 538.58 L212.65 538.58" class="st6"/></g><g id="shape21-66" transform="translate(574.016,-56.6929)"><title>Decision.21</title><desc>Array(N) &lt;= Key</desc><path d="M0 574.02 L35.43 552.76 L70.87 574.02 L35.43 595.28 L0 574.02 Z" class="st1"/><text x="9.92" y="576.42" class="st2">Array(N) &lt;= Key</text></g><g id="shape23-69" transform="translate(163.701,-56.6929)"><title>Dynamic connector.23</title><desc>Ya</desc><path d="M0 595.28 L0 630.71 L112.72 630.71" class="st8"/><rect width="7.731" height="9.6" x="38.3" y="625.909" class="st10"/><text x="38.3" y="633.11" class="st11">Ya</text></g><g id="shape24-76" transform="translate(163.701,-99.2126)"><title>Dynamic connector.24</title><desc>Tidak</desc><path d="M0 595.28 L0 559.84 L112.72 559.84" class="st15"/><rect width="17.406" height="9.6" x="33.462" y="555.043" class="st10"/><text x="33.46" y="562.24" class="st17">Tidak</text></g><g id="shape25-84" transform="translate(354.331,-134.646)"><title>Dynamic connector.25</title><path d="M0 595.28 L106.3 595.28 L106.3 651.97 L212.65 651.97" class="st6"/></g><g id="shape26-89" transform="translate(609.449,-49.6063)"><title>Dynamic connector.26</title><desc>Ya</desc><path d="M0 588.19 L0 673.23 L-559.13 673.23 L-559.13 595.23" class="st8"/><rect width="7.731" height="9.6" x="-283.432" y="668.429" class="st10"/><text x="-283.43" y="675.63" class="st11">Ya</text></g><g id="shape29-96" transform="translate(198.425,-177.165)"><title>Process.29</title><desc>Hasil = Null</desc><rect width="70.866" height="42.52" x="0" y="552.756" class="st18"/><text x="17.3" y="576.42" class="st19">Hasil = Null</text></g><g id="shape30-99" transform="translate(432.283,-262.205)"><title>Process.30</title><desc>Hasil = index</desc><rect width="70.866" height="42.52" x="0" y="552.756" class="st18"/><text x="14.98" y="576.42" class="st19">Hasil = index</text></g><g id="shape34-102" transform="translate(283.465,-262.205)"><title>Custom 3</title><desc>Return Hasil</desc><path d="M0 595.28 L70.87 595.28 L70.87 552.76 L17.01 552.76 L0 569.76 L0 595.28 Z" class="st20"/><text x="15.62" y="576.42" class="st4">Return Hasil</text></g><g id="shape38-105" transform="translate(43.2283,-334.19)"><title>Dynamic connector.38</title><path d="M7.09 595.28 L7.09 617.7" class="st6"/></g><g id="shape39-110" transform="translate(602.362,-99.2126)"><title>Dynamic connector.39</title><desc>Tidak</desc><path d="M7.09 595.28 L7.09 524.36" class="st15"/><rect width="17.406" height="9.6" x="-1.616" y="551.499" class="st10"/><text x="-1.62" y="558.7" class="st19">Tidak</text></g><g id="shape40-117" transform="translate(574.016,-191.339)"><title>Dynamic connector.40</title><path d="M0 588.19 L-63.83 588.19" class="st6"/></g><g id="shape41-122" transform="translate(460.63,-219.685)"><title>Dynamic connector.41</title><desc>Ya</desc><path d="M7.09 595.28 L7.09 559.8" class="st8"/><rect width="7.731" height="9.6" x="3.221" y="569.216" class="st10"/><text x="3.22" y="576.42" class="st11">Ya</text></g><g id="shape42-129" transform="translate(432.283,-191.339)"><title>Dynamic connector.42</title><desc>Tidak</desc><path d="M0 588.19 L-155.95 588.19" class="st15"/><rect width="17.406" height="9.6" x="-90.199" y="583.389" class="st10"/><text x="-90.2" y="590.59" class="st19">Tidak</text></g><g id="shape43-136" transform="translate(85.748,-191.339)"><title>Dynamic connector.43</title><desc>Tidak</desc><path d="M0 588.19 L105.64 588.19" class="st15"/><rect width="17.406" height="9.6" x="47.636" y="583.389" class="st10"/><text x="47.64" y="590.59" class="st21">Tidak</text></g><g id="shape44-143" transform="translate(233.858,-219.685)"><title>Dynamic connector.44</title><path d="M0 595.28 L0 531.5 L42.57 531.5" class="st6"/></g><g id="shape45-148" transform="translate(432.283,-276.378)"><title>Dynamic connector.45</title><path d="M0 588.19 L-70.91 588.19" class="st6"/></g><g id="shape46-153" transform="translate(318.898,-304.724)"><title>Dynamic connector.46</title><path d="M0 595.28 L0 551.64 L248.08 551.64" class="st6"/></g><g id="shape47-158" transform="translate(49.6063,-390.883)"><title>Sheet.47</title><desc>Diagram Alur Algoritma Pencarian Lompat (JumpSearch)</desc><rect width="559.395" height="28.346" x="0" y="566.929" class="st22"/><text x="92.61" y="585.9" class="st23">Diagram Alur Algoritma Pencarian Lompat (JumpSearch)</text></g></g></g></svg>