<svg xmlns="http://www.w3.org/2000/svg" xmlns:ev="http://www.w3.org/2001/xml-events" xmlns:xlink="http://www.w3.org/1999/xlink" width="1122.518" height="793.701" class="st27" color-interpolation-filters="sRGB" viewBox="0 0 841.89 595.276" xml:space="preserve"><style type="text/css">.st1{visibility:visible}.st2,.st3{stroke-linecap:round;stroke-linejoin:round}.st2{fill:#849e33;fill-opacity:.098;stroke:#849e33;stroke-opacity:.098}.st3{fill:#738a2b;stroke:#fff;stroke-width:.5}.st4{fill:#feffff;font-family:Calibri;font-size:.666664em;font-weight:700}.st5,.st6{stroke-linecap:round;stroke-linejoin:round}.st5{fill:#e65802;fill-opacity:.098;stroke:#e65802;stroke-opacity:.098}.st6{fill:#ca4c01;stroke:#fff;stroke-width:.5}.st7{font-size:1em}.st8,.st9{stroke-linecap:round;stroke-linejoin:round}.st8{fill:#42829e;fill-opacity:.098;stroke:#42829e;stroke-opacity:.098}.st9{fill:#38718a;stroke:#fff;stroke-width:.5}.st10,.st11{stroke:#d95302}.st10{marker-end:url(#mrkr4-58);stroke-linecap:round;stroke-linejoin:round;stroke-width:1}.st11{fill:#d95302;fill-opacity:1;stroke-opacity:1;stroke-width:.28409090909091}.st12{fill:#fff;stroke:none;stroke-linecap:butt;stroke-width:7.2}.st13{fill:#aa3f01;font-family:Calibri;font-size:.666664em}.st14,.st15{stroke:#7c9530}.st14{marker-end:url(#mrkr4-66);stroke-linecap:round;stroke-linejoin:round;stroke-width:1}.st15{fill:#7c9530;fill-opacity:1;stroke-opacity:1;stroke-width:.28409090909091}.st16{fill:#607423;font-family:Calibri;font-size:.666664em}.st17,.st18{stroke:#3e7b95}.st17{marker-end:url(#mrkr4-74);stroke-linecap:round;stroke-linejoin:round;stroke-width:.5}.st18{fill:#3e7b95;fill-opacity:1;stroke-opacity:1;stroke-width:.16556291390728}.st19{fill:#2e5f74;font-family:Calibri;font-size:.666664em}.st20,.st21{stroke:#3e7b95}.st20{marker-end:url(#mrkr4-131);stroke-linecap:round;stroke-linejoin:round;stroke-width:1}.st21{fill:#3e7b95;fill-opacity:1;stroke-opacity:1;stroke-width:.28409090909091}.st22{fill:#625986;fill-opacity:.098}.st23{stroke:#625986;stroke-linecap:round;stroke-linejoin:round;stroke-opacity:.098;stroke-width:.5}.st24{fill:#554d75}.st25{stroke:#fff;stroke-linecap:round;stroke-linejoin:round;stroke-width:.5}.st26{fill:#fff;stroke:none;stroke-linecap:butt}.st27{fill:none;fill-rule:evenodd;font-size:12px;overflow:visible;stroke-linecap:square;stroke-miterlimit:3}</style><defs id="Markers"><g id="lend4"><path d="M 2 1 L 0 0 L 2 -1 L 2 1" style="stroke:none"/></g><marker id="mrkr4-58" class="st11" markerUnits="strokeWidth" orient="auto" overflow="visible" refX="-7.04"><use transform="scale(-3.52,-3.52)" xlink:href="#lend4"/></marker><marker id="mrkr4-66" class="st15" markerUnits="strokeWidth" orient="auto" overflow="visible" refX="-7.04"><use transform="scale(-3.52,-3.52)" xlink:href="#lend4"/></marker><marker id="mrkr4-74" class="st18" markerUnits="strokeWidth" orient="auto" overflow="visible" refX="-12.08"><use transform="scale(-6.04,-6.04)" xlink:href="#lend4"/></marker><marker id="mrkr4-131" class="st21" markerUnits="strokeWidth" orient="auto" overflow="visible" refX="-7.04"><use transform="scale(-3.52,-3.52)" xlink:href="#lend4"/></marker></defs><g><title>Page-1</title><g id="shape5-1" transform="translate(35.4331,-525.543)"><title>Start/End.5</title><desc>Bubble Sort</desc><g id="shadow5-2" class="st1"><path d="M14.17 595.28 L56.69 595.28 A14.1732 14.1732 -180 0 0 56.69 566.93 L14.17 566.93 A14.1732 14.1732 -180 1 0 14.17 595.28 Z" class="st2" transform="matrix(1,0,0,1,2.12399,2.12399)"/></g><path d="M14.17 595.28 L56.69 595.28 A14.1732 14.1732 -180 0 0 56.69 566.93 L14.17 566.93 A14.1732 14.1732 -180 1 0 14.17 595.28 Z" class="st3"/><text x="16" y="583.5" class="st4">Bubble Sort</text></g><g id="shape19-6" transform="translate(35.4331,-454.677)"><title>Data</title><desc>Set Size = Panjang dari Array</desc><g id="shadow19-7" class="st1"><path d="M-10.63 595.28 L60.24 595.28 L81.5 552.76 L10.63 552.76 L-10.63 595.28 Z" class="st5" transform="matrix(1,0,0,1,2.12399,2.12399)"/></g><path d="M-10.63 595.28 L60.24 595.28 L81.5 552.76 L10.63 552.76 L-10.63 595.28 Z" class="st6"/><text x="19.86" y="566.82" class="st4">Set Size = <tspan x="14.71" class="st7" dy="1.2em">Panjang dari </tspan><tspan x="26.3" class="st7" dy="1.2em">Array</tspan></text></g><g id="shape20-13" transform="translate(35.4331,-192.472)"><title>Decision</title><desc>Cek Parameter Desc</desc><g id="shadow20-14" class="st1"><path d="M0 574.02 L35.43 552.76 L70.87 574.02 L35.43 595.28 L0 574.02 Z" class="st2" transform="matrix(1,0,0,1,2.12399,2.12399)"/></g><path d="M0 574.02 L35.43 552.76 L70.87 574.02 L35.43 595.28 L0 574.02 Z" class="st3"/><text x="10.89" y="571.62" class="st4">Cek Parameter<tspan x="27.63" class="st7" dy="1.2em">Desc</tspan></text></g><g id="shape21-19" transform="translate(141.732,-72)"><title>Data.21</title><desc>Tahap = 1, Langkah = size - 1</desc><g id="shadow21-20" class="st1"><path d="M-10.63 595.28 L60.24 595.28 L81.5 552.76 L10.63 552.76 L-10.63 595.28 Z" class="st5" transform="matrix(1,0,0,1,2.12399,2.12399)"/></g><path d="M-10.63 595.28 L60.24 595.28 L81.5 552.76 L10.63 552.76 L-10.63 595.28 Z" class="st6"/><text x="18.35" y="566.82" class="st4">Tahap<tspan class="st7"> </tspan><tspan class="st7">= </tspan><tspan class="st7">1</tspan>,<tspan x="18.79" class="st7" dy="1.2em">Langkah </tspan><tspan class="st7">= </tspan><tspan x="24.19" class="st7" dy="1.2em">size </tspan><tspan class="st7">-</tspan><tspan class="st7"> </tspan><tspan class="st7">1</tspan></text></g><g id="shape22-33" transform="translate(141.732,-298.772)"><title>Data.22</title><desc>Tahap = 1, Langkah = 0</desc><g id="shadow22-34" class="st1"><path d="M-10.63 595.28 L60.24 595.28 L81.5 552.76 L10.63 552.76 L-10.63 595.28 Z" class="st5" transform="matrix(1,0,0,1,2.12399,2.12399)"/></g><path d="M-10.63 595.28 L60.24 595.28 L81.5 552.76 L10.63 552.76 L-10.63 595.28 Z" class="st6"/><text x="18.35" y="571.62" class="st4">Tahap = 1<tspan class="st7">,</tspan><tspan x="15.85" class="st7" dy="1.2em">Langkah</tspan><tspan class="st7"> </tspan><tspan class="st7">= </tspan><tspan class="st7">0</tspan></text></g><g id="shape23-43" transform="translate(35.4331,-383.811)"><title>Decision.23</title><desc>Size &gt; 1</desc><g id="shadow23-44" class="st1"><path d="M0 574.02 L35.43 552.76 L70.87 574.02 L35.43 595.28 L0 574.02 Z" class="st2" transform="matrix(1,0,0,1,2.12399,2.12399)"/></g><path d="M0 574.02 L35.43 552.76 L70.87 574.02 L35.43 595.28 L0 574.02 Z" class="st3"/><text x="23.13" y="576.42" class="st4">Size &gt; 1</text></g><g id="shape24-48" transform="translate(744.094,-383.811)"><title>Process</title><desc>Return Array</desc><g id="shadow24-49" class="st1" transform="matrix(1,0,0,1,2.12399,2.12399)"><rect width="70.866" height="42.52" x="0" y="552.756" class="st8"/></g><rect width="70.866" height="42.52" x="0" y="552.756" class="st9"/><text x="14.02" y="576.42" class="st4">Return Array</text></g><g id="shape25-53" transform="translate(106.299,-397.984)"><title>Dynamic connector</title><desc>Tidak</desc><path d="M0 588.19 L630.76 588.19" class="st10"/><rect width="17.406" height="9.6" x="310.195" y="583.389" class="st12"/><text x="310.19" y="590.59" class="st13">Tidak</text></g><g id="shape26-61" transform="translate(63.7795,-383.811)"><title>Dynamic connector.26</title><desc>Ya</desc><path d="M7.09 595.28 L7.09 737.05" class="st14"/><rect width="7.731" height="9.6" x="3.221" y="664.885" class="st12"/><text x="3.22" y="672.09" class="st16">Ya</text></g><g id="shape27-69" transform="translate(106.299,-213.732)"><title>Dynamic connector.27</title><desc>True</desc><path d="M0 595.28 L14.17 595.28 L14.17 488.98 L29.39 488.98" class="st17"/><rect width="14.871" height="9.6" x="6.738" y="533.783" class="st12"/><text x="6.74" y="540.98" class="st19">True</text></g><g id="shape28-77" transform="translate(106.299,-213.732)"><title>Dynamic connector.28</title><desc>False</desc><path d="M0 595.28 L14.17 595.28 L14.17 488.98 L28.39 488.98" class="st10"/><rect width="16.453" height="9.6" x="5.947" y="533.783" class="st12"/><text x="5.95" y="540.98" class="st13">False</text></g><g id="shape31-84" transform="translate(481.89,-298.772)"><title>Data.31</title><desc>Naikan Langkah : Langkah++;</desc><g id="shadow31-85" class="st1"><path d="M-10.63 595.28 L60.24 595.28 L81.5 552.76 L10.63 552.76 L-10.63 595.28 Z" class="st5" transform="matrix(1,0,0,1,2.12399,2.12399)"/></g><path d="M-10.63 595.28 L60.24 595.28 L81.5 552.76 L10.63 552.76 L-10.63 595.28 Z" class="st6"/><text x="23.8" y="566.82" class="st4">Naikan <tspan x="19.68" class="st7" dy="1.2em">Langkah</tspan> :<tspan x="16.6" class="st7" dy="1.2em">Langkah</tspan>++;</text></g><g id="shape35-91" transform="translate(581.102,-185.386)"><title>Data.35</title><desc>Reset Langkah, Naikan Tahap</desc><g id="shadow35-92" class="st1"><path d="M-10.63 595.28 L60.24 595.28 L81.5 552.76 L10.63 552.76 L-10.63 595.28 Z" class="st5" transform="matrix(1,0,0,1,2.12399,2.12399)"/></g><path d="M-10.63 595.28 L60.24 595.28 L81.5 552.76 L10.63 552.76 L-10.63 595.28 Z" class="st6"/><text x="26.17" y="562.02" class="st4">Reset <tspan x="20.65" class="st7" dy="1.2em">Langkah</tspan><tspan class="st7">,</tspan><tspan x="23.8" class="st7" dy="1.2em">Naikan </tspan><tspan x="25.21" class="st7" dy="1.2em">Tahap</tspan></text></g><g id="shape41-100" transform="translate(290.551,-334.205)"><title>Dynamic connector.41</title><desc>Tidak</desc><path d="M0 588.19 L0 566.93 L226.77 566.93 L226.77 581.15" class="st10"/><rect width="17.406" height="9.6" x="104.683" y="562.129" class="st12"/><text x="104.68" y="569.33" class="st13">Tidak</text></g><g id="shape43-107" transform="translate(694.488,-185.386)"><title>Decision.43</title><desc>Tahap &lt; Size</desc><g id="shadow43-108" class="st1"><path d="M0 574.02 L35.43 552.76 L70.87 574.02 L35.43 595.28 L0 574.02 Z" class="st2" transform="matrix(1,0,0,1,2.12399,2.12399)"/></g><path d="M0 574.02 L35.43 552.76 L70.87 574.02 L35.43 595.28 L0 574.02 Z" class="st3"/><text x="14.93" y="576.42" class="st4">Tahap<tspan class="st7"> </tspan>&lt;<tspan class="st7"> </tspan>Size</text></g><g id="shape46-114" transform="translate(765.354,-206.646)"><title>Dynamic connector.46</title><desc>Tidak</desc><path d="M0 595.28 L14.17 595.28 L14.17 425.15" class="st10"/><rect width="17.406" height="9.6" x="5.47" y="508.98" class="st12"/><text x="5.47" y="516.18" class="st13">Tidak</text></g><g id="shape47-121" transform="translate(744.094,-525.543)"><title>Start/End</title><desc>Sorted Array</desc><g id="shadow47-122" class="st1"><path d="M14.17 595.28 L56.69 595.28 A14.1732 14.1732 -180 0 0 56.69 566.93 L14.17 566.93 A14.1732 14.1732 -180 1 0 14.17 595.28 Z" class="st2" transform="matrix(1,0,0,1,2.12399,2.12399)"/></g><path d="M14.17 595.28 L56.69 595.28 A14.1732 14.1732 -180 0 0 56.69 566.93 L14.17 566.93 A14.1732 14.1732 -180 1 0 14.17 595.28 Z" class="st3"/><text x="14.38" y="583.5" class="st4">Sorted Array</text></g><g id="shape48-126" transform="translate(772.441,-426.331)"><title>Dynamic connector.48</title><path d="M7.09 595.28 L7.09 503.1" class="st20"/></g><g id="shape49-132" transform="translate(63.7795,-525.543)"><title>Dynamic connector.49</title><path d="M7.09 595.28 L7.09 616.58" class="st20"/></g><g id="shape50-137" transform="translate(63.7795,-454.677)"><title>Dynamic connector.50</title><path d="M7.09 595.28 L7.09 616.58" class="st20"/></g><g id="shape51-142" transform="translate(255.118,-72)"><title>Decision.51</title><desc>Langkah &gt; Langkah – 1 ;</desc><g id="shadow51-143" class="st1"><path d="M0 574.02 L35.43 552.76 L70.87 574.02 L35.43 595.28 L0 574.02 Z" class="st2" transform="matrix(1,0,0,1,2.12399,2.12399)"/></g><path d="M0 574.02 L35.43 552.76 L70.87 574.02 L35.43 595.28 L0 574.02 Z" class="st3"/><text x="18.79" y="571.62" class="st4">Langkah<tspan class="st7"> </tspan>&gt;<tspan class="st7"> </tspan><tspan x="13.85" class="st7" dy="1.2em">Langkah</tspan><tspan class="st7"> </tspan><tspan class="st7">–</tspan><tspan class="st7"> </tspan><tspan class="st7">1 </tspan><tspan class="st7">;</tspan></text></g><g id="shape52-155" transform="translate(368.504,-72)"><title>Subprocess</title><desc>Swap Langkah dengan Langkah - 1</desc><g id="shadow52-156" class="st1"><path d="M0 595.28 L70.87 595.28 L70.87 552.76 L0 552.76 L0 595.28 Z" class="st22" transform="matrix(1,0,0,1,2.12399,2.12399)"/><path d="M0 595.28 L70.87 595.28 L70.87 552.76 L0 552.76 L0 595.28" class="st23" transform="matrix(1,0,0,1,2.12399,2.12399)"/><path d="M8.5 595.28 L8.5 552.76" class="st23" transform="matrix(1,0,0,1,2.12399,2.12399)"/><path d="M62.36 595.28 L62.36 552.76" class="st23" transform="matrix(1,0,0,1,2.12399,2.12399)"/></g><path d="M0 595.28 L70.87 595.28 L70.87 552.76 L0 552.76 L0 595.28 Z" class="st24"/><path d="M0 595.28 L70.87 595.28 L70.87 552.76 L0 552.76 L0 595.28" class="st25"/><path d="M8.5 595.28 L8.5 552.76" class="st25"/><path d="M62.36 595.28 L62.36 552.76" class="st25"/><text x="11.79" y="566.82" class="st4">Swap <tspan class="st7">Langkah</tspan> <tspan x="23.11" class="st7" dy="1.2em">dengan </tspan><tspan x="15.72" class="st7" dy="1.2em">Langkah </tspan> - 1</text></g><g id="shape53-169" transform="translate(481.89,-72)"><title>Data.53</title><desc>Turunkan Langkah. Langkah--;</desc><g id="shadow53-170" class="st1"><path d="M-10.63 595.28 L60.24 595.28 L81.5 552.76 L10.63 552.76 L-10.63 595.28 Z" class="st5" transform="matrix(1,0,0,1,2.12399,2.12399)"/></g><path d="M-10.63 595.28 L60.24 595.28 L81.5 552.76 L10.63 552.76 L-10.63 595.28 Z" class="st6"/><text x="19.55" y="566.82" class="st4">Turunkan <tspan x="20.61" class="st7" dy="1.2em">Langkah</tspan>. <tspan x="18.13" class="st7" dy="1.2em">Langkah</tspan>--;</text></g><g id="shape54-176" transform="translate(581.102,-72)"><title>Decision.54</title><desc>Langkah &gt;= Tahap</desc><g id="shadow54-177" class="st1"><path d="M0 574.02 L35.43 552.76 L70.87 574.02 L35.43 595.28 L0 574.02 Z" class="st2" transform="matrix(1,0,0,1,2.12399,2.12399)"/></g><path d="M0 574.02 L35.43 552.76 L70.87 574.02 L35.43 595.28 L0 574.02 Z" class="st3"/><text x="16.79" y="571.62" class="st4">Langkah<tspan class="st7"> </tspan><tspan class="st7">&gt;</tspan>= <tspan class="st7"> </tspan><tspan x="25.21" class="st7" dy="1.2em">Tahap</tspan></text></g><g id="shape58-185" transform="translate(325.984,-86.1732)"><title>Dynamic connector.58</title><desc>Ya</desc><path d="M0 588.19 L35.48 588.19" class="st14"/><rect width="7.731" height="9.6" x="17.395" y="583.389" class="st12"/><text x="17.39" y="590.59" class="st16">Ya</text></g><g id="shape59-192" transform="translate(439.37,-86.1732)"><title>Dynamic connector.59</title><path d="M0 588.19 L35.48 588.19" class="st20"/></g><g id="shape60-197" transform="translate(552.756,-86.1732)"><title>Dynamic connector.60</title><path d="M0 588.19 L21.31 588.19" class="st20"/></g><g id="shape61-202" transform="translate(609.449,-114.52)"><title>Dynamic connector.61</title><desc>Tidak</desc><path d="M7.09 595.28 L7.09 531.45" class="st10"/><rect width="17.406" height="9.6" x="-1.616" y="555.043" class="st12"/><text x="-1.62" y="562.24" class="st13">Tidak</text></g><g id="shape63-209" transform="translate(290.551,-64.9134)"><title>Dynamic connector.63</title><desc>Tidak</desc><path d="M0 588.19 L0 609.45 L226.77 609.45 L226.77 595.23" class="st10"/><rect width="17.406" height="9.6" x="104.683" y="604.649" class="st12"/><text x="104.68" y="611.85" class="st13">Tidak</text></g><g id="shape69-216" transform="translate(106.299,-213.732)"><title>Dynamic connector.69</title><desc>True</desc><path d="M0 595.28 L14.17 595.28 L14.17 715.75 L28.39 715.75" class="st14"/><rect width="14.871" height="9.6" x="6.738" y="654.255" class="st12"/><text x="6.74" y="661.46" class="st16">True</text></g><g id="shape71-223" transform="translate(212.598,-86.1732)"><title>Dynamic connector.71</title><path d="M0 588.19 L35.48 588.19" class="st20"/></g><g id="shape73-228" transform="translate(212.598,-312.945)"><title>Dynamic connector.73</title><path d="M0 588.19 L35.48 588.19" class="st20"/></g><g id="shape72-233" transform="translate(255.118,-298.772)"><title>Decision.72</title><desc>Langkah &gt; Langkah + 1</desc><g id="shadow72-234" class="st1"><path d="M0 574.02 L35.43 552.76 L70.87 574.02 L35.43 595.28 L0 574.02 Z" class="st2" transform="matrix(1,0,0,1,2.12399,2.12399)"/></g><path d="M0 574.02 L35.43 552.76 L70.87 574.02 L35.43 595.28 L0 574.02 Z" class="st3"/><text x="17.88" y="571.62" class="st4">Langkah <tspan class="st7"> </tspan><tspan class="st7">&gt;</tspan> <tspan x="15.86" class="st7" dy="1.2em">Langkah</tspan><tspan class="st7"> </tspan><tspan class="st7">+ </tspan><tspan class="st7">1</tspan></text></g><g id="shape75-244" transform="translate(325.984,-312.945)"><title>Dynamic connector.75</title><desc>Ya</desc><path d="M0 588.19 L35.48 588.19" class="st14"/><rect width="7.731" height="9.6" x="17.395" y="583.389" class="st26"/><text x="17.39" y="590.59" class="st16">Ya</text></g><g id="shape74-251" transform="translate(368.504,-298.772)"><title>Subprocess.74</title><desc>Swap Langkah dengan Langkah + 1</desc><g id="shadow74-252" class="st1"><path d="M0 595.28 L70.87 595.28 L70.87 552.76 L0 552.76 L0 595.28 Z" class="st22" transform="matrix(1,0,0,1,2.12399,2.12399)"/><path d="M0 595.28 L70.87 595.28 L70.87 552.76 L0 552.76 L0 595.28" class="st23" transform="matrix(1,0,0,1,2.12399,2.12399)"/><path d="M8.5 595.28 L8.5 552.76" class="st23" transform="matrix(1,0,0,1,2.12399,2.12399)"/><path d="M62.36 595.28 L62.36 552.76" class="st23" transform="matrix(1,0,0,1,2.12399,2.12399)"/></g><path d="M0 595.28 L70.87 595.28 L70.87 552.76 L0 552.76 L0 595.28 Z" class="st24"/><path d="M0 595.28 L70.87 595.28 L70.87 552.76 L0 552.76 L0 595.28" class="st25"/><path d="M8.5 595.28 L8.5 552.76" class="st25"/><path d="M62.36 595.28 L62.36 552.76" class="st25"/><text x="11.79" y="566.82" class="st4">Swap <tspan class="st7">Langkah</tspan> <tspan x="23.11" class="st7" dy="1.2em">dengan </tspan><tspan x="15.85" class="st7" dy="1.2em">Langkah</tspan> + 1</text></g><g id="shape78-265" transform="translate(439.37,-312.945)"><title>Dynamic connector.78</title><path d="M0 588.19 L35.48 588.19" class="st20"/></g><g id="shape80-270" transform="translate(552.756,-312.945)"><title>Dynamic connector.80</title><path d="M0 588.19 L21.31 588.19" class="st20"/></g><g id="shape79-275" transform="translate(581.102,-298.772)"><title>Decision.79</title><desc>Langkah &lt;= Size - Tahap</desc><g id="shadow79-276" class="st1"><path d="M0 574.02 L35.43 552.76 L70.87 574.02 L35.43 595.28 L0 574.02 Z" class="st2" transform="matrix(1,0,0,1,2.12399,2.12399)"/></g><path d="M0 574.02 L35.43 552.76 L70.87 574.02 L35.43 595.28 L0 574.02 Z" class="st3"/><text x="16.79" y="571.62" class="st4">Langkah<tspan class="st7"> </tspan>&lt;=<tspan class="st7"> </tspan><tspan x="15.7" class="st7" dy="1.2em">Size </tspan>- Tahap</text></g><g id="shape81-283" transform="translate(609.449,-298.772)"><title>Dynamic connector.81</title><desc>Tidak</desc><path d="M7.09 595.28 L7.09 659.1" class="st10"/><rect width="17.406" height="9.6" x="-1.616" y="625.909" class="st12"/><text x="-1.62" y="633.11" class="st13">Tidak</text></g><g id="shape83-290" transform="translate(651.969,-320.031)"><title>Dynamic connector.83</title><desc>Ya</desc><path d="M0 595.28 L42.52 595.28 L42.52 637.8 L-30.71 637.8 A4.72441 4.72441 -180 0 0 -40.16 637.8 L-361.42 637.8 L-361.42 623.58" class="st14"/><rect width="7.731" height="9.6" x="-131.424" y="632.996" class="st12"/><text x="-131.42" y="640.2" class="st16">Ya</text></g><g id="shape84-297" transform="translate(651.969,-93.2598)"><title>Dynamic connector.84</title><desc>Ya</desc><path d="M0 595.28 L37.3 595.28 L37.3 552.76 L-30.71 552.76 A4.72441 4.72441 -180 0 0 -40.16 552.76 L-361.42 552.76 L-361.42 566.98" class="st14"/><rect width="7.731" height="9.6" x="-136.646" y="547.956" class="st12"/><text x="-136.65" y="555.16" class="st16">Ya</text></g><g id="shape89-304" transform="translate(651.969,-199.559)"><title>Dynamic connector.89</title><path d="M0 588.19 L35.48 588.19" class="st20"/></g><g id="shape90-309" transform="translate(729.921,-185.386)"><title>Dynamic connector.90</title><desc>Ya</desc><path d="M0 595.28 L0 616.55 L-108.66 616.55 A4.72441 4.72441 -180 0 0 -118.11 616.55 L-439.37 616.55 L-439.37 659.1" class="st14"/><rect width="7.731" height="9.6" x="-237.709" y="611.751" class="st12"/><text x="-237.71" y="618.95" class="st16">Ya</text></g><g id="shape91-316" transform="translate(729.921,-227.906)"><title>Dynamic connector.91</title><desc>Ya</desc><path d="M0 595.28 L0 574.78 L-108.66 574.78 A4.72441 4.72441 -180 0 0 -118.11 574.78 L-439.37 574.78 L-439.37 531.45" class="st14"/><rect width="7.731" height="9.6" x="-238.484" y="569.977" class="st12"/><text x="-238.48" y="577.18" class="st16">Ya</text></g></g></svg>