<svg xmlns="http://www.w3.org/2000/svg" xmlns:ev="http://www.w3.org/2001/xml-events" xmlns:xlink="http://www.w3.org/1999/xlink" width="1122.518" height="793.701" class="st19" color-interpolation-filters="sRGB" viewBox="0 0 841.89 595.276" xml:space="preserve"><style type="text/css">.st1{fill:#fff;stroke:#febf01;stroke-linecap:round;stroke-linejoin:round;stroke-width:2}.st2{fill:#8d6b01;font-family:Calibri;font-size:1.00001em}.st3{fill:#ec7d31;stroke:#fff;stroke-linecap:round;stroke-linejoin:round;stroke-width:1}.st4{fill:#fff;font-family:Calibri;font-size:1.00001em}.st5{font-size:1em}.st6,.st7{stroke:#4f4640}.st6{marker-end:url(#mrkr4-18);stroke-linecap:round;stroke-linejoin:round;stroke-width:2.25}.st7{fill:#4f4640;fill-opacity:1;stroke-opacity:1;stroke-width:.47169811320755}.st8,.st9{stroke:#70ac48}.st8{marker-end:url(#mrkr4-27);stroke-linecap:round;stroke-linejoin:round;stroke-width:2.25}.st9{fill:#70ac48;fill-opacity:1;stroke-opacity:1;stroke-width:.47169811320755}.st10{fill:#fff;stroke:none;stroke-linecap:butt;stroke-width:7.2}.st11{fill:#3e5f28;font-family:Calibri;font-size:1.00001em}.st12{fill:#5b9ad4}.st13{stroke:#fff;stroke-linecap:round;stroke-linejoin:round;stroke-width:1}.st14,.st15{stroke:#ec7d32}.st14{marker-end:url(#mrkr4-47);stroke-linecap:round;stroke-linejoin:round;stroke-width:2.25}.st15{fill:#ec7d32;fill-opacity:1;stroke-opacity:1;stroke-width:.47169811320755}.st16{fill:#91430e;font-family:Calibri;font-size:1.00001em}.st17{fill:none;stroke:none;stroke-linecap:round;stroke-linejoin:round;stroke-width:2}.st18{fill:#5c5c5c;font-family:Calibri;font-size:1.33333em;font-weight:700}.st19{fill:none;fill-rule:evenodd;font-size:12px;overflow:visible;stroke-linecap:square;stroke-miterlimit:3}</style><defs id="Markers"><g id="lend4"><path d="M 2 1 L 0 0 L 2 -1 L 2 1" style="stroke:none"/></g><marker id="mrkr4-18" class="st7" markerUnits="strokeWidth" orient="auto" overflow="visible" refX="-4.24"><use transform="scale(-2.12,-2.12)" xlink:href="#lend4"/></marker><marker id="mrkr4-27" class="st9" markerUnits="strokeWidth" orient="auto" overflow="visible" refX="-4.24"><use transform="scale(-2.12,-2.12)" xlink:href="#lend4"/></marker><marker id="mrkr4-47" class="st15" markerUnits="strokeWidth" orient="auto" overflow="visible" refX="-4.24"><use transform="scale(-2.12,-2.12)" xlink:href="#lend4"/></marker></defs><g><title>Page-1</title><g id="shape1-1" transform="translate(96.3979,-460.085)"><title>Start/End.28</title><desc>Linear Search</desc><path d="M25.08 595.28 L78.15 595.28 A25.0757 25.0757 -180 0 0 78.15 545.12 L25.08 545.12 A25.0757 25.0757 -180 1 0 25.08 595.28 Z" class="st1"/><text x="18.86" y="573.8" class="st2">Linear Search</text></g><g id="shape2-4" transform="translate(82.7717,-244.549)"><title>Data.29</title><desc>Index = count(array), I = 0, Key = Nilai dicari</desc><path d="M-28.81 595.28 L101.67 595.28 L159.29 480.04 L28.81 480.04 L-28.81 595.28 Z" class="st3"/><text x="47.5" y="519.66" class="st4">Index = <tspan x="33.44" class="st5" dy="1.2em">count</tspan>(array),<tspan x="53.49" class="st5" dy="1.2em">I </tspan>= 0,<tspan x="25.08" class="st5" dy="1.2em">Key </tspan>= Nilai dicari</text></g><g id="shape3-10" transform="translate(578.27,-184.252)"><title>Decision.30</title><desc>I &lt; Index</desc><path d="M0 570.2 L51.61 545.12 L103.23 570.2 L51.61 595.28 L0 570.2 Z" class="st1"/><text x="31" y="573.8" class="st2">I &lt; Index</text></g><g id="shape5-13" transform="translate(140.926,-460.085)"><title>Dynamic connector.27</title><path d="M7.09 595.28 L7.09 686.04" class="st6"/></g><g id="shape19-19" transform="translate(251.241,-277.09)"><title>Decision</title><desc>Array[i] = Key</desc><path d="M0 570.2 L51.61 545.12 L103.23 570.2 L51.61 595.28 L0 570.2 Z" class="st1"/><text x="18.79" y="573.8" class="st2">Array[i] = Key</text></g><g id="shape22-22" transform="translate(302.856,-327.241)"><title>Dynamic connector.22</title><desc>Ya</desc><path d="M0 595.28 L0 545.58 L114.33 545.58" class="st8"/><rect width="11.596" height="14.4" x="31.291" y="538.378" class="st10"/><text x="31.29" y="549.18" class="st11">Ya</text></g><g id="shape28-30" transform="translate(426.73,-351.863)"><title>Subprocess.28</title><desc>Hasil = true</desc><path d="M0 595.28 L103.23 595.28 L103.23 545.12 L0 545.12 L0 595.28 Z" class="st12"/><path d="M0 595.28 L103.23 595.28 L103.23 545.12 L0 545.12 L0 595.28" class="st13"/><path d="M8.5 595.28 L8.5 545.12" class="st13"/><path d="M94.72 595.28 L94.72 545.12" class="st13"/><text x="23.96" y="573.8" class="st4">Hasil = <tspan class="st5">true</tspan></text></g><g id="shape23-37" transform="translate(213.253,-295.079)"><title>Dynamic connector</title><path d="M0 588.19 L28.45 588.19" class="st6"/></g><g id="shape27-42" transform="translate(354.47,-295.079)"><title>Dynamic connector.27</title><desc>Tidak</desc><path d="M0 588.19 L62.72 588.19" class="st14"/><rect width="26.11" height="14.4" x="23.075" y="580.989" class="st10"/><text x="23.08" y="591.79" class="st16">Tidak</text></g><g id="shape26-50" transform="translate(426.73,-277.09)"><title>Subprocess</title><desc>Hasil = false</desc><path d="M0 595.28 L103.23 595.28 L103.23 545.12 L0 545.12 L0 595.28 Z" class="st12"/><path d="M0 595.28 L103.23 595.28 L103.23 545.12 L0 545.12 L0 595.28" class="st13"/><path d="M8.5 595.28 L8.5 545.12" class="st13"/><path d="M94.72 595.28 L94.72 545.12" class="st13"/><text x="22.79" y="573.8" class="st4">Hasil = <tspan class="st5">false</tspan></text></g><g id="shape30-57" transform="translate(578.27,-209.328)"><title>Dynamic connector.30</title><desc>Ya</desc><path d="M0 595.28 L-275.41 595.28 L-275.41 537.05" class="st8"/><rect width="11.596" height="14.4" x="-177.386" y="588.076" class="st10"/><text x="-177.39" y="598.88" class="st11">Ya</text></g><g id="shape31-64" transform="translate(684.803,-460.085)"><title>Start/End</title><desc>End</desc><path d="M25.08 595.28 L78.15 595.28 A25.0757 25.0757 -180 0 0 78.15 545.12 L25.08 545.12 A25.0757 25.0757 -180 1 0 25.08 595.28 Z" class="st1"/><text x="42.38" y="573.8" class="st2">End</text></g><g id="shape32-67" transform="translate(674.413,-202.241)"><title>Dynamic connector.32</title></g><g id="shape33-68" transform="translate(529.959,-369.852)"><title>Dynamic connector.33</title><path d="M0 588.19 L145.3 588.19" class="st6"/></g><g id="shape34-73" transform="translate(684.803,-351.863)"><title>Subprocess.34</title><desc>Return Hasil</desc><path d="M0 595.28 L103.23 595.28 L103.23 545.12 L0 545.12 L0 595.28 Z" class="st12"/><path d="M0 595.28 L103.23 595.28 L103.23 545.12 L0 545.12 L0 595.28" class="st13"/><path d="M8.5 595.28 L8.5 545.12" class="st13"/><path d="M94.72 595.28 L94.72 545.12" class="st13"/><text x="21.9" y="573.8" class="st4">Return Hasil</text></g><g id="shape35-79" transform="translate(578.27,-277.09)"><title>Data</title><desc>i++</desc><path d="M-12.54 595.28 L90.69 595.28 L115.77 545.12 L12.54 545.12 L-12.54 595.28 Z" class="st3"/><text x="44.26" y="573.8" class="st4">i++</text></g><g id="shape36-82" transform="translate(622.798,-277.09)"><title>Dynamic connector.36</title><path d="M7.09 595.28 L7.09 628.42" class="st6"/></g><g id="shape37-87" transform="translate(529.959,-295.079)"><title>Dynamic connector.37</title><path d="M0 588.19 L38.77 588.19" class="st6"/></g><g id="shape38-92" transform="translate(681.499,-209.328)"><title>Dynamic connector.38</title><desc>Tidak</desc><path d="M0 595.28 L54.92 595.28 L54.92 462.28" class="st14"/><rect width="26.11" height="14.4" x="41.863" y="544.267" class="st10"/><text x="41.86" y="555.07" class="st16">Tidak</text></g><g id="shape39-99" transform="translate(729.33,-402.015)"><title>Dynamic connector.39</title><path d="M7.09 595.28 L7.09 546.75" class="st6"/></g><g id="shape40-104" transform="translate(261.564,-489.005)"><title>Sheet.40</title><desc>Alur Kerja Algoritma Pencarian Linear</desc><rect width="341.555" height="21.231" x="0" y="574.045" class="st17"/><text x="46.02" y="589.46" class="st18">Alur Kerja Algori<tspan class="st5">t</tspan>ma Pencarian Linear</text></g></g></svg>